# xmcd
#
# Track frame offsets:
#	150
#	13642
#	29277
#	47245
#	66460
#	84020
#	105952
#	126192
#	143550
#
# Disc length: 2181 seconds
#
# Revision: 1
# Processed by: cddbd v1.5.1PL2 Copyright (c) Steve Scherf et al.
# Submitted via: audiograbber 1.83.01
#
DISCID=6b088309
DTITLE=Various Artist - Okeh Lateral Cut Record
DYEAR=1994
DGENRE=Blues
TTITLE0=Every Morning - Keb' Mo'
TTITLE1=She Just Wants To Dance - Keb' Mo'
TTITLE2=Don't Try To Explain - Keb' Mo'
TTITLE3=Blues Music - Love and Special Sauce
TTITLE4=Baby's Got Sauce - Love and Special Sauce
TTITLE5=Garbage Man - Love and Special Sauce
TTITLE6=Crossfire - Little Axe
TTITLE7=Another Sinful Day - Little Axe
TTITLE8=Falling Down - Little Axe
EXTD=
EXTT0=
EXTT1=
EXTT2=
EXTT3=
EXTT4=
EXTT5=
EXTT6=
EXTT7=
EXTT8=
PLAYORDER=
